# xmcd
#
# Track frame offsets:
#	150
#	28354
#	57533
#	81462
#	101416
#	124070
#	153324
#	186325
#	207152
#	228691
#	246463
#	264034
#	288648
#	310954
#
# Disc length: 4418 seconds
#
# Revision: 0
# Processed by: cddbd v1.5.1PL2 Copyright (c) Steve Scherf et al.
# Submitted via: dBpowerAMP V4.0
#
DISCID=d211400e
DTITLE=Scorpions Baledes - various
DYEAR=1900
DGENRE=
TTITLE0=Still loving you
TTITLE1=Lady Starlight
TTITLE2=Wind of Change
TTITLE3=Is there anybody there
TTITLE4=Always Somewhere
TTITLE5=Holiday
TTITLE6=Living for tomorrow
TTITLE7=Send me an angel
TTITLE8=In trance
TTITLE9=Make it Real
TTITLE10=Rhythm of love
TTITLE11=Believe in love
TTITLE12=Under the same sun
TTITLE13=Heroes don't cry
EXTD=
EXTT0=
EXTT1=
EXTT2=
EXTT3=
EXTT4=
EXTT5=
EXTT6=
EXTT7=
EXTT8=
EXTT9=
EXTT10=
EXTT11=
EXTT12=
EXTT13=
PLAYORDER=
